<mxfile host="app.diagrams.net" modified="2021-02-25T03:47:32.209Z" agent="5.0 (Windows NT 10.0; Win64; x64) AppleWebKit/537.36 (KHTML, like Gecko) Chrome/88.0.4324.190 Safari/537.36" etag="MKyGGvDUwuUwF5XlRGdq" version="14.4.2" type="github">
  <diagram id="rNpvPLMPBks3BJ-8ZiGd" name="Page-1">
    <mxGraphModel dx="1038" dy="644" grid="1" gridSize="10" guides="1" tooltips="1" connect="1" arrows="1" fold="1" page="1" pageScale="1" pageWidth="850" pageHeight="1100" math="0" shadow="0">
      <root>
        <mxCell id="0" />
        <mxCell id="1" parent="0" />
        <mxCell id="7qTpZ0EzGEeg1P1_YbdB-1" value="&lt;font style=&quot;font-size: 27px&quot;&gt;&lt;b&gt;CKAD Preparation Steps&lt;/b&gt;&lt;/font&gt;" style="text;html=1;resizable=0;autosize=0;align=center;verticalAlign=middle;points=[];rounded=2;dashed=1;dashPattern=1 1;arcSize=0;labelBackgroundColor=#ffffff;spacingTop=16;spacingBottom=9;shadow=1;" vertex="1" parent="1">
          <mxGeometry x="250" y="30" width="330" height="20" as="geometry" />
        </mxCell>
        <mxCell id="7qTpZ0EzGEeg1P1_YbdB-2" value="&lt;font style=&quot;font-size: 15px&quot;&gt;Linux Commands&lt;/font&gt;" style="rounded=1;whiteSpace=wrap;html=1;dashed=1;dashPattern=1 1;fillColor=#f8cecc;strokeColor=#b85450;" vertex="1" parent="1">
          <mxGeometry x="110" y="120" width="130" height="60" as="geometry" />
        </mxCell>
        <mxCell id="7qTpZ0EzGEeg1P1_YbdB-3" value="&lt;font style=&quot;font-size: 15px&quot;&gt;Bash Script&lt;/font&gt;" style="rounded=1;whiteSpace=wrap;html=1;dashed=1;dashPattern=1 1;fillColor=#fff2cc;strokeColor=#d6b656;" vertex="1" parent="1">
          <mxGeometry x="240" y="200" width="120" height="60" as="geometry" />
        </mxCell>
        <mxCell id="7qTpZ0EzGEeg1P1_YbdB-13" style="edgeStyle=orthogonalEdgeStyle;rounded=0;orthogonalLoop=1;jettySize=auto;html=1;exitX=1;exitY=0.5;exitDx=0;exitDy=0;entryX=0.5;entryY=0;entryDx=0;entryDy=0;" edge="1" parent="1" source="7qTpZ0EzGEeg1P1_YbdB-4" target="7qTpZ0EzGEeg1P1_YbdB-5">
          <mxGeometry relative="1" as="geometry" />
        </mxCell>
        <mxCell id="7qTpZ0EzGEeg1P1_YbdB-4" value="&lt;font style=&quot;font-size: 15px&quot;&gt;Vim editor&lt;/font&gt;" style="rounded=1;whiteSpace=wrap;html=1;dashed=1;dashPattern=1 1;fillColor=#fa6800;strokeColor=#C73500;fontColor=#ffffff;" vertex="1" parent="1">
          <mxGeometry x="360" y="280" width="120" height="60" as="geometry" />
        </mxCell>
        <mxCell id="7qTpZ0EzGEeg1P1_YbdB-14" style="edgeStyle=orthogonalEdgeStyle;rounded=0;orthogonalLoop=1;jettySize=auto;html=1;exitX=1;exitY=0.5;exitDx=0;exitDy=0;entryX=0.5;entryY=0;entryDx=0;entryDy=0;" edge="1" parent="1" source="7qTpZ0EzGEeg1P1_YbdB-5" target="7qTpZ0EzGEeg1P1_YbdB-6">
          <mxGeometry relative="1" as="geometry" />
        </mxCell>
        <mxCell id="7qTpZ0EzGEeg1P1_YbdB-5" value="&lt;font style=&quot;font-size: 15px&quot;&gt;YAML&lt;/font&gt;" style="rounded=1;whiteSpace=wrap;html=1;dashed=1;dashPattern=1 1;fillColor=#dae8fc;strokeColor=#6c8ebf;" vertex="1" parent="1">
          <mxGeometry x="480" y="360" width="120" height="60" as="geometry" />
        </mxCell>
        <mxCell id="7qTpZ0EzGEeg1P1_YbdB-6" value="&lt;font style=&quot;font-size: 15px&quot;&gt;Kubernetes Concepts&lt;/font&gt;" style="rounded=1;whiteSpace=wrap;html=1;dashed=1;dashPattern=1 1;fillColor=#1ba1e2;strokeColor=#006EAF;fontColor=#ffffff;" vertex="1" parent="1">
          <mxGeometry x="600" y="440" width="120" height="60" as="geometry" />
        </mxCell>
        <mxCell id="7qTpZ0EzGEeg1P1_YbdB-9" value="" style="endArrow=classic;html=1;exitX=1.077;exitY=0.53;exitDx=0;exitDy=0;exitPerimeter=0;entryX=0.5;entryY=0;entryDx=0;entryDy=0;" edge="1" parent="1" source="7qTpZ0EzGEeg1P1_YbdB-2" target="7qTpZ0EzGEeg1P1_YbdB-3">
          <mxGeometry width="50" height="50" relative="1" as="geometry">
            <mxPoint x="240" y="200" as="sourcePoint" />
            <mxPoint x="290" y="150" as="targetPoint" />
            <Array as="points">
              <mxPoint x="300" y="152" />
            </Array>
          </mxGeometry>
        </mxCell>
        <mxCell id="7qTpZ0EzGEeg1P1_YbdB-10" value="" style="endArrow=classic;html=1;exitX=1;exitY=0.5;exitDx=0;exitDy=0;entryX=0.5;entryY=0;entryDx=0;entryDy=0;" edge="1" parent="1" source="7qTpZ0EzGEeg1P1_YbdB-3" target="7qTpZ0EzGEeg1P1_YbdB-4">
          <mxGeometry width="50" height="50" relative="1" as="geometry">
            <mxPoint x="360" y="260" as="sourcePoint" />
            <mxPoint x="410" y="210" as="targetPoint" />
            <Array as="points">
              <mxPoint x="420" y="230" />
            </Array>
          </mxGeometry>
        </mxCell>
        <mxCell id="7qTpZ0EzGEeg1P1_YbdB-17" value="&lt;b&gt;Tips&lt;/b&gt;:&amp;nbsp;&lt;br style=&quot;font-size: 15px&quot;&gt;Go Slow while learning Kubernetes.&amp;nbsp;&lt;br style=&quot;font-size: 15px&quot;&gt;You might need to go step by step if new to Linux. &lt;br style=&quot;font-size: 15px&quot;&gt;&lt;div style=&quot;font-size: 15px&quot;&gt;&lt;span style=&quot;font-size: 15px&quot;&gt;Don&#39;t worry its doable.&lt;/span&gt;&lt;/div&gt;" style="text;html=1;align=left;verticalAlign=middle;resizable=0;points=[];autosize=1;fontSize=15;" vertex="1" parent="1">
          <mxGeometry x="410" y="80" width="350" height="80" as="geometry" />
        </mxCell>
      </root>
    </mxGraphModel>
  </diagram>
</mxfile>
